<?xml version="1.0" encoding="utf-8"?>
<!-- Generator: Adobe Illustrator 28.0.0, SVG Export Plug-In . SVG Version: 6.00 Build 0)  -->
<svg version="1.1" id="Capa_1" xmlns="http://www.w3.org/2000/svg" xmlns:xlink="http://www.w3.org/1999/xlink" x="0px" y="0px"
	 viewBox="0 0 800 800" style="enable-background:new 0 0 800 800;" xml:space="preserve">
<style type="text/css">
	.st0{fill:#FFFFFF;}
</style>
<g id="SVGRepo_bgCarrier">
</g>
<g id="SVGRepo_tracerCarrier">
</g>
<g id="SVGRepo_iconCarrier">
	<g>
		<path class="st0" d="M722,451.9c0-105.9-51.4-200.1-130.6-258.8l6.2-11.1l96.8,54.3c2.4,1.4,5.1,2,7.7,2c5.5,0,10.8-2.9,13.7-8
			c18.6-33.2,23.2-71.6,12.8-108.2c-8.9-31.5-27.9-58.4-54.2-77.2l12-21.4c4.2-7.6,1.5-17.1-6-21.4S663.3,0.5,659,8l-12,21.4
			c-65.9-27.9-143.9-2.4-179.7,61.5c-2,3.6-2.5,7.9-1.4,11.9c1.1,4,3.8,7.4,7.4,9.4l96.9,54.3l-5,9c-48.3-29-104.8-45.7-165.2-45.7
			s-116.8,16.7-165.2,45.7l-5-9l96.9-54.3c7.6-4.2,10.3-13.8,6-21.4c-18.6-33.2-49-57.1-85.6-67.5c-31.5-8.9-64.4-6.7-94.1,5.9
			L141,8c-4.2-7.6-13.8-10.3-21.4-6c-7.6,4.2-10.3,13.8-6,21.4l12,21.4c-26.3,18.7-45.3,45.6-54.2,77.2
			C61,158.5,65.6,197,84.2,230.2c2.9,5.1,8.2,8,13.7,8c2.6,0,5.2-0.6,7.7-2l96.8-54.3l6.2,11.1C129.5,251.8,78,345.9,78,451.9
			c0,94.6,41.1,179.9,106.3,238.8l-19.7,90.3c-1.9,8.5,3.5,16.8,12,18.7c1.1,0.2,2.3,0.4,3.4,0.4c7.2,0,13.7-5,15.3-12.3l16.4-74.9
			c53,38.4,118.1,61,188.4,61s135.4-22.7,188.4-61l16.4,74.9c1.6,7.3,8.1,12.3,15.3,12.3c1.1,0,2.2-0.1,3.4-0.4
			c8.5-1.9,13.8-10.2,12-18.7l-19.7-90.3C680.9,631.7,722,546.5,722,451.9z M645.8,63.7c25.9,14.5,44.5,38.2,52.6,66.7
			c6.6,23.4,5.4,47.8-3.3,70.1L503.4,93.1C536.3,49.9,597.1,36.4,645.8,63.7z M104.9,200.6c-8.7-22.3-9.9-46.7-3.3-70.1
			c8-28.5,26.7-52.2,52.6-66.7c17.1-9.6,35.7-14.1,54.1-14.1c33.9,0,67,15.5,88.4,43.6L104.9,200.6z M109.4,451.9
			c0-160.2,130.4-290.6,290.6-290.6s290.6,130.4,290.6,290.6S560.2,742.4,400,742.4S109.4,612.1,109.4,451.9z"/>
		<path class="st0" d="M400,225.4c-124.9,0-226.4,101.6-226.4,226.4S275.1,678.3,400,678.3c124.9,0,226.4-101.6,226.4-226.4
			C626.4,327,524.9,225.4,400,225.4z M400,646.9c-107.5,0-195-87.5-195-195s87.5-195,195-195c107.5,0,195,87.5,195,195
			C595,559.4,507.5,646.9,400,646.9z"/>
		<path class="st0" d="M415.7,397.9V322c0-8.7-7-15.7-15.7-15.7c-8.7,0-15.7,7-15.7,15.7v75.9c-18.4,5.4-32.9,19.9-38.3,38.3h-35.5
			c-8.7,0-15.7,7-15.7,15.7s7,15.7,15.7,15.7H346c6.8,23.4,28.4,40.5,54,40.5c31,0,56.2-25.2,56.2-56.2
			C456.2,426.3,439.1,404.7,415.7,397.9z M400,476.7c-13.7,0-24.8-11.1-24.8-24.8s11.1-24.8,24.8-24.8s24.8,11.1,24.8,24.8
			S413.7,476.7,400,476.7z"/>
	</g>
</g>
</svg>
